<svg xmlns="http://www.w3.org/2000/svg" viewBox="0 0 24 24">
  <title>svg_heart_outline</title>
  <g id="bg">
    <path id="Path_264" data-name="Path 264" d="M0,0H24V24H0Z" style="fill: none"/>
  </g>
  <g id="icon">
    <path id="Path_265" data-name="Path 265" d="M16.5,2.83A6,6,0,0,0,12,4.92,6,6,0,0,0,7.5,2.83,5.44,5.44,0,0,0,2,8.22v.11c0,3.78,3.4,6.86,8.55,11.54L12,21.18l1.45-1.32C18.6,15.19,22,12.11,22,8.33a5.44,5.44,0,0,0-5.39-5.5A.21.21,0,0,0,16.5,2.83ZM12.1,18.38l-.1.1-.1-.1C7.14,14.07,4,11.22,4,8.33a3.41,3.41,0,0,1,3.33-3.5H7.5a3.9,3.9,0,0,1,3.57,2.36h1.87A3.87,3.87,0,0,1,16.5,4.83,3.41,3.41,0,0,1,20,8.16v.17C20,11.22,16.86,14.07,12.1,18.38Z"/>
  </g>
</svg>
