<svg xmlns="http://www.w3.org/2000/svg" viewBox="0 0 260 31.05">
  <title>svg</title>
  <g id="bg">
    <path id="Path_264" data-name="Path 264" d="M46,0H70V24H46Z" style="fill: none"/>
    <path id="Path_264-2" data-name="Path 264" d="M0,1.05H30v30H0Z" style="fill: none"/>
    <path id="Path_262" data-name="Path 262" d="M84,0h24V24H84Z" style="fill: none"/>
    <path id="Path_1935" data-name="Path 1935" d="M122,0h24V24H122Z" style="fill: none"/>
    <path id="Path_222" data-name="Path 222" d="M236,0h24V24H236Z" style="fill: none"/>
    <path id="Path_1006" data-name="Path 1006" d="M160,0h24V24H160Z" style="fill: none"/>
    <path id="Path_913" data-name="Path 913" d="M198,0h24V24H198Z" style="fill: none"/>
  </g>
  <g id="icon">
    <path id="Path_1993" data-name="Path 1993" d="M15,11.58A19.4,19.4,0,0,0,1.73,6.35V22.56A19.41,19.41,0,0,1,15,27.8a19.5,19.5,0,0,1,13.27-5.24V6.35A19.4,19.4,0,0,0,15,11.58Z"/>
    <path id="Path_265" data-name="Path 265" d="M62.5,2.83A6,6,0,0,0,58,4.92a6,6,0,0,0-4.5-2.09A5.44,5.44,0,0,0,48,8.22v.11c0,3.78,3.4,6.86,8.55,11.54L58,21.18l1.45-1.32C64.6,15.19,68,12.11,68,8.33a5.44,5.44,0,0,0-5.39-5.5A.21.21,0,0,0,62.5,2.83ZM58.1,18.38l-.1.1-.1-.1c-4.76-4.31-7.9-7.16-7.9-10a3.41,3.41,0,0,1,3.33-3.5h.17a3.9,3.9,0,0,1,3.57,2.36h1.87A3.87,3.87,0,0,1,62.5,4.83,3.41,3.41,0,0,1,66,8.16v.17C66,11.22,62.86,14.07,58.1,18.38Z"/>
    <path id="Path_263" data-name="Path 263" d="M96,21.18l-1.45-1.32C89.4,15.19,86,12.11,86,8.33a5.44,5.44,0,0,1,5.39-5.5.21.21,0,0,1,.11,0A6,6,0,0,1,96,4.92a6,6,0,0,1,4.5-2.09A5.44,5.44,0,0,1,106,8.22v.11c0,3.78-3.4,6.86-8.55,11.54Z"/>
    <path id="Path_1934" data-name="Path 1934" d="M133,9h-2V2h-2V9h-2V2h-2V9a4,4,0,0,0,3.75,4v9h2.5V13A4,4,0,0,0,135,9V2h-2Zm5-3v8h2.5v8H143V2C140.24,2,138,4.24,138,6Z"/>
    <path id="Path_221" data-name="Path 221" d="M242,19a2,2,0,0,0,2,2h8a2,2,0,0,0,2-2V7H242ZM255,4h-3.5l-1-1h-5l-1,1H241V6h14Z"/>
    <path id="Path_1007" data-name="Path 1007" d="M182,5.79l-4.6-3.86-1.29,1.53,4.6,3.86ZM167.88,3.46,166.6,1.93,162,5.78l1.29,1.53Zm4.62,4.61H171v6l4.75,2.85.75-1.23-4-2.37Zm-.5-4a9,9,0,1,0,9,9A9,9,0,0,0,172,4.07Zm0,16a7,7,0,1,1,7-7,7,7,0,0,1-7,7Z"/>
    <path id="Path_912" data-name="Path 912" d="M217,13h-6v6h-2V13h-6V11h6V5h2v6h6Z"/>
  </g>
</svg>
